<?xml version="1.0" ?><!DOCTYPE svg  PUBLIC '-//W3C//DTD SVG 1.1//EN'  'http://www.w3.org/Graphics/SVG/1.1/DTD/svg11.dtd'><svg height="100%" style="fill-rule:evenodd;clip-rule:evenodd;stroke-linejoin:round;stroke-miterlimit:2;" version="1.1" viewBox="0 0 1151 1151" width="100%" xml:space="preserve" xmlns="http://www.w3.org/2000/svg" xmlns:serif="http://www.serif.com/" xmlns:xlink="http://www.w3.org/1999/xlink"><g transform="matrix(1,0,0,1,-246.226,-1.33631)"><path d="M883.45,576.26C883.45,739.93 751.67,872.61 589.12,872.61C426.57,872.61 294.78,739.93 294.78,576.26C294.78,412.59 426.56,279.9 589.12,279.9C751.68,279.9 883.45,412.59 883.45,576.26" style="fill-rule:nonzero;"/></g><g transform="matrix(1,0,0,1,-246.226,-1.33631)"><path d="M1206.34,576.26C1206.34,730.32 1140.45,855.26 1059.17,855.26C977.89,855.26 912,730.32 912,576.26C912,422.2 977.88,297.26 1059.16,297.26C1140.44,297.26 1206.33,422.16 1206.33,576.26" style="fill-rule:nonzero;"/></g><g transform="matrix(1,0,0,1,-246.226,-1.33631)"><path d="M1338.41,576.26C1338.41,714.26 1315.24,826.2 1286.65,826.2C1258.06,826.2 1234.9,714.29 1234.9,576.26C1234.9,438.23 1258.07,326.32 1286.65,326.32C1315.23,326.32 1338.41,438.22 1338.41,576.26" style="fill-rule:nonzero;"/></g><g transform="matrix(1,0,0,1,-246.226,-1.33631)"><path d="M1633.77,0L1337.48,0L1337.48,0.25L296.29,0.25L296.29,0L-0,0L-0,1150.07L119.51,1150.07L119.51,1150.51L1529.92,1150.51L1529.92,1150.07L1633.77,1150.07L1633.77,0ZM1337.48,296.54L1337.48,854.21L296.29,854.21L296.29,296.54L1337.48,296.54Z" style="fill:none;fill-rule:nonzero;"/></g></svg>